<svg width="885" height="876" viewBox="0 0 885 876" fill="none" xmlns="http://www.w3.org/2000/svg">
<path d="M509.777 875.5C759.84 875.5 884.777 707.594 884.777 500.5C884.777 293.406 759.84 125.5 509.777 125.5C259.746 125.5 134.777 293.406 134.777 500.5C134.777 707.594 259.746 875.5 509.777 875.5Z" fill="#FFB02E"/>
<path d="M360.318 506.564C390.201 506.564 418.859 494.693 439.989 473.563C461.119 452.433 472.99 423.774 472.99 393.892C472.99 364.009 461.119 335.351 439.989 314.221C418.859 293.09 390.201 281.22 360.318 281.22C330.44 281.22 301.785 293.089 280.658 314.216C259.531 335.343 247.662 363.998 247.662 393.876C247.662 423.754 259.531 452.409 280.658 473.536C301.785 494.663 330.44 506.564 360.318 506.564ZM658.975 508.626C689.13 508.626 718.051 496.647 739.375 475.323C760.698 454 772.678 425.079 772.678 394.923C772.678 364.767 760.698 335.846 739.375 314.523C718.051 293.199 689.13 281.22 658.975 281.22C628.823 281.22 599.906 293.197 578.585 314.518C557.265 335.839 545.287 364.755 545.287 394.907C545.287 425.059 557.265 453.976 578.585 475.296C599.906 496.617 628.823 508.626 658.975 508.626Z" fill="white"/>
<path d="M456.248 393.406C456.248 414.722 447.78 435.166 432.707 450.239C417.634 465.312 397.19 473.781 375.873 473.781C354.556 473.781 334.113 465.312 319.039 450.239C303.966 435.166 295.498 414.722 295.498 393.406C295.498 372.089 303.966 351.645 319.039 336.572C334.113 321.499 354.556 313.031 375.873 313.031C397.19 313.031 417.634 321.499 432.707 336.572C447.78 351.645 456.248 372.089 456.248 393.406ZM724.123 393.406C724.334 404.092 722.411 414.713 718.467 424.647C714.523 434.581 708.638 443.629 701.155 451.261C693.672 458.893 684.742 464.956 674.888 469.095C665.033 473.233 654.452 475.365 643.764 475.365C633.075 475.365 622.494 473.233 612.64 469.095C602.785 464.956 593.855 458.893 586.372 451.261C578.89 443.629 573.004 434.581 569.06 424.647C565.116 414.713 563.194 404.092 563.404 393.406C563.819 372.367 572.468 352.331 587.493 337.599C602.518 322.867 622.721 314.615 643.764 314.615C664.806 314.615 685.009 322.867 700.034 337.599C715.059 352.331 723.708 372.367 724.123 393.406ZM403.623 568.562C401.811 566.073 399.527 563.965 396.901 562.359C394.274 560.753 391.357 559.68 388.316 559.201C385.275 558.722 382.169 558.847 379.176 559.568C376.183 560.29 373.362 561.594 370.873 563.406C368.384 565.217 366.276 567.502 364.67 570.128C363.064 572.754 361.991 575.671 361.512 578.713C361.033 581.754 361.158 584.859 361.88 587.852C362.601 590.845 363.905 593.667 365.717 596.156C382.842 619.624 432.811 663.405 504.779 663.405C576.092 663.405 632.686 620.28 652.936 598.187C657.133 593.599 659.337 587.532 659.062 581.32C658.786 575.108 656.054 569.26 651.467 565.062C646.879 560.864 640.812 558.66 634.6 558.936C628.388 559.211 622.54 561.943 618.342 566.531C603.436 582.843 558.467 616.53 504.779 616.53C451.748 616.53 414.498 583.499 403.623 568.562Z" fill="#402A32"/>
<path d="M400.029 20.4055C403.623 18.218 407.279 16.0305 411.248 14.6868L428.592 22.2493L435.529 52.218C442.925 51.678 450.284 53.6635 456.404 57.8498C462.524 62.036 467.043 68.1753 469.22 75.2633C471.398 82.3512 471.106 89.9684 468.392 96.8687C465.678 103.769 460.702 109.544 454.279 113.249L332.404 183.624C340.074 181.057 348.417 181.38 355.866 184.53C363.315 187.681 369.357 193.443 372.857 200.735C376.356 208.026 377.073 216.344 374.872 224.127C372.671 231.91 367.704 238.621 360.904 242.999L285.436 284.999C253.571 305.377 216.54 316.21 178.717 316.218H87.8418L180.904 164.999C167.311 140.843 155.279 118.656 155.279 118.656L297.467 35.218L311.686 26.9993L396.936 22.2493L400.029 20.3743V20.4055Z" fill="#FF822D"/>
<path d="M257.844 29.9682C264.101 26.3646 271.373 24.9259 278.531 25.8751C285.69 26.8243 292.335 30.1083 297.437 35.2182L349.75 5.03068C353.895 2.63325 358.515 1.17379 363.284 0.755095C368.054 0.336403 372.858 0.968671 377.357 2.60736C381.856 4.24605 385.94 6.8513 389.324 10.2396C392.707 13.6279 395.306 17.7167 396.937 22.2182L405.375 17.3432C412.896 12.992 421.838 11.8068 430.233 14.0485C438.629 16.2901 445.789 21.7749 450.141 29.2963C454.492 36.8177 455.677 45.7595 453.435 54.1547C451.194 62.5499 445.709 69.7107 438.188 74.0619L230.719 193.812C233.469 184.437 235.281 174.718 236.125 164.812L390.5 75.6869C412 63.2807 420.5 36.9994 411.219 14.6869C409.219 15.3744 407.25 16.2494 405.375 17.3432L396.937 22.2182C399.553 29.4541 399.508 37.3794 396.869 44.6065C394.229 51.8337 389.132 57.9021 382.469 61.7494L236.687 145.937V136.437L298.656 100.656C304.83 97.092 310.148 92.2203 314.238 86.3826C318.329 80.545 321.092 73.8828 322.333 66.8638C323.575 59.8447 323.266 52.639 321.427 45.7523C319.587 38.8656 316.263 32.4649 311.688 26.9994L297.437 35.2182C300.984 38.7723 303.667 43.0945 305.277 47.8506C306.887 52.6066 307.382 57.6693 306.723 62.6471C306.065 67.625 304.271 72.3848 301.479 76.5586C298.688 80.7324 294.974 84.2085 290.625 86.7182L218.906 128.124V130.593C218.906 136.124 218.656 141.656 218.156 147.124L218.062 148.343C216.167 168.377 211.049 187.973 202.906 206.374C187.66 240.877 162.36 269.978 130.312 289.874L87.8438 316.218C76.3736 316.218 65.0158 313.959 54.4187 309.57C43.8217 305.18 34.193 298.746 26.0824 290.636C17.9718 282.525 11.5381 272.896 7.14864 262.299C2.75921 251.702 0.5 240.345 0.5 228.874V226.624C0.5 193.562 18.7187 163.187 47.9062 147.593L121.656 108.218L121.563 108.656L257.844 29.9682Z" fill="#FFB02E"/>
</svg>
