<svg width="128" height="128" viewBox="0 0 128 128" fill="none" xmlns="http://www.w3.org/2000/svg">
<g clip-path="url(#clip0_745_824)">
<rect width="128" height="128" rx="32" fill="#34D399"/>
<path d="M101.174 77.9258C101.174 80.2461 100.766 82.7598 99.9492 85.4668C99.1328 88.1309 97.8008 90.623 95.9531 92.9434C94.1484 95.2207 91.7637 97.1328 88.7988 98.6797C85.877 100.227 82.3105 101 78.0996 101H47.8711C45.5508 101 43.0371 100.592 40.3301 99.7754C37.666 98.959 35.1738 97.6484 32.8535 95.8438C30.5762 93.9961 28.6641 91.6113 27.1172 88.6895C25.5703 85.7246 24.7969 82.1367 24.7969 77.9258C24.7969 75.6055 25.2051 73.0918 26.0215 70.3848C26.8379 67.6777 28.1484 65.1855 29.9531 62.9082C31.8008 60.5879 34.1855 58.6543 37.1074 57.1074C40.0723 55.5605 43.6602 54.7871 47.8711 54.7871H78.0996V70.7715H47.8711C45.5938 70.7715 43.832 71.4805 42.5859 72.8984C41.3398 74.2734 40.7168 75.9922 40.7168 78.0547C40.7168 80.2461 41.4258 81.9648 42.8438 83.2109C44.3047 84.4141 46.0234 85.0156 48 85.0156H78.0996C80.377 85.0156 82.1387 84.3281 83.3848 82.9531C84.6309 81.5781 85.2539 79.8594 85.2539 77.7969V54.4004C85.2539 52.209 84.5664 50.4688 83.1914 49.1797C81.8594 47.8906 80.1621 47.2461 78.0996 47.2461H41.2969V31.3262H78.0996C80.4199 31.3262 82.9121 31.7344 85.5762 32.5508C88.2832 33.3672 90.7754 34.6992 93.0527 36.5469C95.373 38.3516 97.3066 40.7363 98.8535 43.7012C100.4 46.623 101.174 50.1895 101.174 54.4004V77.9258Z" fill="white"/>
</g>
<defs>
<clipPath id="clip0_745_824">
<rect width="128" height="128" fill="white"/>
</clipPath>
</defs>
</svg>
